Pulp Fiction 480p Enhanced Definition Encoded by DrDeceit

h264/AVC AAC-LC

Source - 1080p BRRip

Screenshots
 
http://imgbox.com/g/RWmsuaghjv
 
http://i.imgbox.com/acovYwOj.png 
http://i.imgbox.com/abtg5Cd7.png 
http://i.imgbox.com/acfjw1j4.png 
http://i.imgbox.com/ablaPomV.png 
http://i.imgbox.com/advpuU9n.png


General
Format                                   : MPEG-4
Format profile                           : Base Media / Version 2
Codec ID                                 : mp42
File size                                : 1.24 GiB
Duration                                 : 2h 34mn
Overall bit rate mode                    : Variable
Overall bit rate                         : 1 145 Kbps
Encoded date                             : UTC 2012-12-11 00:32:46
Tagged date                              : UTC 2012-12-11 11:01:33
Writing application                      : HandBrake 0.9.8 2012071700

Video
ID                                       : 1
Format                                   : AVC
Format/Info                              : Advanced Video Codec
Format profile                           : High@L3.0
Format settings, CABAC                   : Yes
Format settings, ReFrames                : 6 frames
Codec ID                                 : avc1
Codec ID/Info                            : Advanced Video Coding
Duration                                 : 2h 34mn
Bit rate mode                            : Variable
Bit rate                                 : 1 000 Kbps
Width                                    : 846 pixels
Height                                   : 360 pixels
Display aspect ratio                     : 2.35:1
Frame rate mode                          : Variable
Frame rate                               : 23.976 fps
Minimum frame rate                       : 23.974 fps
Maximum frame rate                       : 23.981 fps
Color space                              : YUV
Chroma subsampling                       : 4:2:0
Bit depth                                : 8 bits
Scan type                                : Progressive
Bits/(Pixel*Frame)                       : 0.137
Stream size                              : 1.08 GiB (87%)
Writing library                          : x264 core 120
Encoding settings                        : cabac=1 / ref=6 / deblock=1:0:0 / analyse=0x3:0x133 / me=umh / subme=10 / psy=1 / psy_rd=1.00:0.10 / mixed_ref=1 / me_range=16 / chroma_me=1 / trellis=2 / 8x8dct=1 / cqm=0 / deadzone=21,11 / fast_pskip=1 / chroma_qp_offset=-3 / threads=3 / sliced_threads=0 / nr=0 / decimate=1 / interlaced=0 / bluray_compat=0 / constrained_intra=0 / bframes=3 / b_pyramid=2 / b_adapt=2 / b_bias=0 / direct=3 / weightb=1 / open_gop=1 / weightp=2 / keyint=240 / keyint_min=24 / scenecut=40 / intra_refresh=0 / rc_lookahead=1 / rc=crf / mbtree=1 / crf=18.0 / qcomp=0.60 / qpmin=3 / qpmax=69 / qpstep=4 / ip_ratio=1.40 / aq=1:1.00
Encoded date                             : UTC 2012-12-11 00:32:46
Tagged date                              : UTC 2012-12-11 11:01:33
Color primaries                          : BT.709
Transfer characteristics                 : BT.709
Matrix coefficients                      : BT.709

Audio
ID                                       : 2
Format                                   : AAC
Format/Info                              : Advanced Audio Codec
Format profile                           : LC
Codec ID                                 : 40
Duration                                 : 2h 34mn
Bit rate mode                            : Variable
Bit rate                                 : 144 Kbps
Maximum bit rate                         : 168 Kbps
Channel(s)                               : 2 channels
Channel positions                        : Front: L R
Sampling rate                            : 48.0 KHz
Compression mode                         : Lossy
Delay relative to video                  : 83ms
Stream size                              : 159 MiB (13%)
Language                                 : English
Encoded date                             : UTC 2012-12-11 00:32:46
Tagged date                              : UTC 2012-12-11 11:01:32

Text
ID                                       : 3
Format                                   : Apple text
Codec ID                                 : text
Duration                                 : 2h 34mn
Bit rate mode                            : Variable
Bit rate                                 : 0 bps
Stream size                              : 279 Bytes (0%)
Encoded date                             : UTC 2012-12-11 00:32:46
Tagged date                              : UTC 2012-12-11 11:01:33
